HIERARCHY
ROOT Root
{
  OFFSET 0.0 0.0 0.0
  CHANNELS 6 Xposition Yposition Zposition Zrotation Yrotation Xrotation
  JOINT Hips
  {
    OFFSET 0.0 100.0 0.0
    CHANNELS 6 Xposition Yposition Zposition Zrotation Yrotation Xrotation
    JOINT Spine1
    {
      OFFSET -0.013727 5.003763 -0.053727
      CHANNELS 3 Zrotation Yrotation Xrotation
      JOINT Spine2
      {
        OFFSET -0.0 7.125301 -0.029825
        CHANNELS 3 Zrotation Yrotation Xrotation
        JOINT Chest
        {
          OFFSET -1e-06 7.550063 -0.815971
          CHANNELS 3 Zrotation Yrotation Xrotation
          JOINT Neck1
          {
            OFFSET -0.181677 26.311295 -0.553348
            CHANNELS 3 Zrotation Yrotation Xrotation
            JOINT Neck2
            {
              OFFSET -3e-06 7.709397 2.302585
              CHANNELS 3 Zrotation Yrotation Xrotation
              JOINT Head
              {
                OFFSET -5e-06 6.128916 1.953709
                CHANNELS 3 Zrotation Yrotation Xrotation
                JOINT HeadEnd
                {
                  OFFSET 0.003598 16.065403 -1.835379
                  CHANNELS 3 Zrotation Yrotation Xrotation
                }
                JOINT Jaw
                {
                  OFFSET 0.002637 0.475592 3.094941
                  CHANNELS 3 Zrotation Yrotation Xrotation
                }
                JOINT LeftEye
                {
                  OFFSET 3.206381 5.380205 7.586883
                  CHANNELS 3 Zrotation Yrotation Xrotation
                }
                JOINT RightEye
                {
                  OFFSET -3.22244 5.361869 7.558234
                  CHANNELS 3 Zrotation Yrotation Xrotation
                }
              }
            }
          }
          JOINT LeftShoulder
          {
            OFFSET 1.621652 23.237164 5.113413
            CHANNELS 3 Zrotation Yrotation Xrotation
            JOINT LeftArm
            {
              OFFSET 14.919846 2e-06 -5.502326
              CHANNELS 3 Zrotation Yrotation Xrotation
              JOINT LeftForeArm
              {
                OFFSET 28.739307 0.0 -0.002588
                CHANNELS 3 Zrotation Yrotation Xrotation
                JOINT LeftHand
                {
                  OFFSET 27.093981 -1e-06 0.002609
                  CHANNELS 3 Zrotation Yrotation Xrotation
                  JOINT LeftHandThumb1
                  {
                    OFFSET 2.276482 -1.392045 3.191413
                    CHANNELS 3 Zrotation Yrotation Xrotation
                    JOINT LeftHandThumb2
                    {
                      OFFSET 4.012836 -1.828127 1.641654
                      CHANNELS 3 Zrotation Yrotation Xrotation
                      JOINT LeftHandThumb3
                      {
                        OFFSET 2.798515 0.0 -3e-06
                        CHANNELS 3 Zrotation Yrotation Xrotation
                        JOINT LeftHandThumbEnd
                        {
                          OFFSET 3.180793 -4e-06 4e-06
                          CHANNELS 3 Zrotation Yrotation Xrotation
                        }
                      }
                    }
                  }
                  JOINT LeftHandIndex1
                  {
                    OFFSET 3.247555 -0.531998 2.296169
                    CHANNELS 3 Zrotation Yrotation Xrotation
                    JOINT LeftHandIndex2
                    {
                      OFFSET 6.364578 0.01206 0.1786
                      CHANNELS 3 Zrotation Yrotation Xrotation
                      JOINT LeftHandIndex3
                      {
                        OFFSET 3.662364 0.0 0.0
                        CHANNELS 3 Zrotation Yrotation Xrotation
                        JOINT LeftHandIndex4
                        {
                          OFFSET 2.329242 4e-06 4e-06
                          CHANNELS 3 Zrotation Yrotation Xrotation
                          JOINT LeftHandIndexEnd
                          {
                            OFFSET 2.759615 -0.180537 -0.113024
                            CHANNELS 3 Zrotation Yrotation Xrotation
                          }
                        }
                      }
                    }
                  }
                  JOINT LeftHandMiddle1
                  {
                    OFFSET 3.163495 0.240981 1.000332
                    CHANNELS 3 Zrotation Yrotation Xrotation
                    JOINT LeftHandMiddle2
                    {
                      OFFSET 6.19078 -0.259278 -1.002548
                      CHANNELS 3 Zrotation Yrotation Xrotation
                      JOINT LeftHandMiddle3
                      {
                        OFFSET 4.35652 -4e-06 -1e-06
                        CHANNELS 3 Zrotation Yrotation Xrotation
                        JOINT LeftHandMiddle4
                        {
                          OFFSET 2.996877 -8e-06 0.0
                          CHANNELS 3 Zrotation Yrotation Xrotation
                          JOINT LeftHandMiddleEnd
                          {
                            OFFSET 2.304287 -0.294569 -0.031741
                            CHANNELS 3 Zrotation Yrotation Xrotation
                          }
                        }
                      }
                    }
                  }
                  JOINT LeftHandRing1
                  {
                    OFFSET 2.882643 -0.053652 -0.322543
                    CHANNELS 3 Zrotation Yrotation Xrotation
                    JOINT LeftHandRing2
                    {
                      OFFSET 5.854541 -0.486202 -1.373841
                      CHANNELS 3 Zrotation Yrotation Xrotation
                      JOINT LeftHandRing3
                      {
                        OFFSET 4.350578 0.0 3e-06
                        CHANNELS 3 Zrotation Yrotation Xrotation
                        JOINT LeftHandRing4
                        {
                          OFFSET 2.651321 7e-06 2e-06
                          CHANNELS 3 Zrotation Yrotation Xrotation
                          JOINT LeftHandRingEnd
                          {
                            OFFSET 1.936105 0.077687 -7.1e-05
                            CHANNELS 3 Zrotation Yrotation Xrotation
                          }
                        }
                      }
                    }
                  }
                  JOINT LeftHandPinky1
                  {
                    OFFSET 2.8655 -0.310005 -1.600378
                    CHANNELS 3 Zrotation Yrotation Xrotation
                    JOINT LeftHandPinky2
                    {
                      OFFSET 5.087849 -1.331141 -1.77123
                      CHANNELS 3 Zrotation Yrotation Xrotation
                      JOINT LeftHandPinky3
                      {
                        OFFSET 3.070974 4e-06 0.0
                        CHANNELS 3 Zrotation Yrotation Xrotation
                        JOINT LeftHandPinky4
                        {
                          OFFSET 1.549672 0.0 1e-06
                          CHANNELS 3 Zrotation Yrotation Xrotation
                          JOINT LeftHandPinkyEnd
                          {
                            OFFSET 1.944893 -0.157802 0.057219
                            CHANNELS 3 Zrotation Yrotation Xrotation
                          }
                        }
                      }
                    }
                  }
                }
              }
            }
          }
          JOINT RightShoulder
          {
            OFFSET -1.380118 23.180309 5.214158
            CHANNELS 3 Zrotation Yrotation Xrotation
            JOINT RightArm
            {
              OFFSET -15.037196 1.2e-05 -5.545604
              CHANNELS 3 Zrotation Yrotation Xrotation
              JOINT RightForeArm
              {
                OFFSET -28.736639 2e-06 -0.002597
                CHANNELS 3 Zrotation Yrotation Xrotation
                JOINT RightHand
                {
                  OFFSET -27.133619 -0.0 0.002613
                  CHANNELS 3 Zrotation Yrotation Xrotation
                  JOINT RightHandThumb1
                  {
                    OFFSET -2.274032 -1.383988 3.163127
                    CHANNELS 3 Zrotation Yrotation Xrotation
                    JOINT RightHandThumb2
                    {
                      OFFSET -4.011429 -1.827466 1.640914
                      CHANNELS 3 Zrotation Yrotation Xrotation
                      JOINT RightHandThumb3
                      {
                        OFFSET -2.794935 -4e-06 -3e-06
                        CHANNELS 3 Zrotation Yrotation Xrotation
                        JOINT RightHandThumbEnd
                        {
                          OFFSET -3.183852 4e-06 1e-06
                          CHANNELS 3 Zrotation Yrotation Xrotation
                        }
                      }
                    }
                  }
                  JOINT RightHandIndex1
                  {
                    OFFSET -3.253266 -0.520057 2.282866
                    CHANNELS 3 Zrotation Yrotation Xrotation
                    JOINT RightHandIndex2
                    {
                      OFFSET -6.341917 0.012471 0.178266
                      CHANNELS 3 Zrotation Yrotation Xrotation
                      JOINT RightHandIndex3
                      {
                        OFFSET -3.654871 -8e-06 -0.0
                        CHANNELS 3 Zrotation Yrotation Xrotation
                        JOINT RightHandIndex4
                        {
                          OFFSET -2.327586 0.0 1e-06
                          CHANNELS 3 Zrotation Yrotation Xrotation
                          JOINT RightHandIndexEnd
                          {
                            OFFSET -2.76179 -0.180656 -0.113078
                            CHANNELS 3 Zrotation Yrotation Xrotation
                          }
                        }
                      }
                    }
                  }
                  JOINT RightHandMiddle1
                  {
                    OFFSET -3.168106 0.246593 1.00103
                    CHANNELS 3 Zrotation Yrotation Xrotation
                    JOINT RightHandMiddle2
                    {
                      OFFSET -6.180828 -0.258836 -1.000895
                      CHANNELS 3 Zrotation Yrotation Xrotation
                      JOINT RightHandMiddle3
                      {
                        OFFSET -4.348901 0.0 -0.0
                        CHANNELS 3 Zrotation Yrotation Xrotation
                        JOINT RightHandMiddle4
                        {
                          OFFSET -3.00024 -4e-06 -2e-06
                          CHANNELS 3 Zrotation Yrotation Xrotation
                          JOINT RightHandMiddleEnd
                          {
                            OFFSET -2.30252 -0.29437 -0.031706
                            CHANNELS 3 Zrotation Yrotation Xrotation
                          }
                        }
                      }
                    }
                  }
                  JOINT RightHandRing1
                  {
                    OFFSET -2.88569 -0.067952 -0.308858
                    CHANNELS 3 Zrotation Yrotation Xrotation
                    JOINT RightHandRing2
                    {
                      OFFSET -5.854198 -0.48613 -1.373731
                      CHANNELS 3 Zrotation Yrotation Xrotation
                      JOINT RightHandRing3
                      {
                        OFFSET -4.33881 -4e-06 -0.0
                        CHANNELS 3 Zrotation Yrotation Xrotation
                        JOINT RightHandRing4
                        {
                          OFFSET -2.654903 -4e-06 4e-06
                          CHANNELS 3 Zrotation Yrotation Xrotation
                          JOINT RightHandRingEnd
                          {
                            OFFSET -1.933568 0.077527 -5.2e-05
                            CHANNELS 3 Zrotation Yrotation Xrotation
                          }
                        }
                      }
                    }
                  }
                  JOINT RightHandPinky1
                  {
                    OFFSET -2.866425 -0.342796 -1.584145
                    CHANNELS 3 Zrotation Yrotation Xrotation
                    JOINT RightHandPinky2
                    {
                      OFFSET -5.091371 -1.332055 -1.772385
                      CHANNELS 3 Zrotation Yrotation Xrotation
                      JOINT RightHandPinky3
                      {
                        OFFSET -3.062664 -4e-06 1e-06
                        CHANNELS 3 Zrotation Yrotation Xrotation
                        JOINT RightHandPinky4
                        {
                          OFFSET -1.546529 4e-06 -2e-06
                          CHANNELS 3 Zrotation Yrotation Xrotation
                          JOINT RightHandPinkyEnd
                          {
                            OFFSET -1.945119 -0.157718 0.057211
                            CHANNELS 3 Zrotation Yrotation Xrotation
                          }
                        }
                      }
                    }
                  }
                }
              }
            }
          }
        }
      }
    }
    JOINT LeftLeg
    {
      OFFSET 10.043214 -8.434526 2.595655
      CHANNELS 3 Zrotation Yrotation Xrotation
      JOINT LeftShin
      {
        OFFSET -1e-06 -43.221752 -0.802913
        CHANNELS 3 Zrotation Yrotation Xrotation
        JOINT LeftFoot
        {
          OFFSET 1e-06 -42.155094 -3.481523
          CHANNELS 3 Zrotation Yrotation Xrotation
          JOINT LeftToeBase
          {
            OFFSET 0.0 -5.059472 13.231529
            CHANNELS 3 Zrotation Yrotation Xrotation
            JOINT LeftToeEnd
            {
              OFFSET -0.009607 -1.647619 6.513017
              CHANNELS 3 Zrotation Yrotation Xrotation
            }
          }
        }
      }
    }
    JOINT RightLeg
    {
      OFFSET -10.047278 -8.29526 2.620317
      CHANNELS 3 Zrotation Yrotation Xrotation
      JOINT RightShin
      {
        OFFSET 1e-06 -43.362206 -0.805556
        CHANNELS 3 Zrotation Yrotation Xrotation
        JOINT RightFoot
        {
          OFFSET 2e-06 -42.117393 -3.478398
          CHANNELS 3 Zrotation Yrotation Xrotation
          JOINT RightToeBase
          {
            OFFSET -0.0 -5.079609 13.284196
            CHANNELS 3 Zrotation Yrotation Xrotation
            JOINT RightToeEnd
            {
              OFFSET 0.009532 -1.634378 6.460591
              CHANNELS 3 Zrotation Yrotation Xrotation
            }
          }
        }
      }
    }
  }
}
MOTION
Frames: 5
Frame Time: 0.03333333333333333
0.0 0.0 0.0 0.0 -0.0 0.0 -4.418443 100.002312 -3.41984 0.910997 -0.318511 -3.512071 0.018513 -0.107384 -5.748462 -0.393466 -0.236799 -7.233061 0.08128 -2.423195 17.262978 0.19698 2.91718 5.848907 -0.678034 0.603321 -3.657102 -1.641329 0.475346 -4.157002 7.7e-05 -2.2e-05 6e-06 0.024535 -0.055674 -0.011098 0.765235 -3.775958 -10.655813 -0.719004 3.675228 -10.673541 -11.185246 -4.932633 13.242263 -64.741837 -10.953496 28.331503 -0.408918 -27.843502 0.26463 -0.397967 4.188361 -5.307344 -5.882111 9.861292 0.70259 -10.936879 -0.360574 7.156208 -1e-06 8.77483 -1e-06 -16.180273 17.931358 6.034575 -1.844035 2.498506 -2.507278 -10.163608 4.678948 4.621109 -20.976038 -1e-06 0.0 -21.226303 2.4517 -3.594005 1e-06 -6e-06 -0.0 -1.362683 2.240801 -0.746323 -21.334929 0.584911 3.008321 -13.821221 -2e-06 1e-06 -23.887188 -0.24908 -0.839486 -60.682995 2.565114 -1.201717 -0.294025 1.679688 0.833255 -14.218219 0.093216 1.30058 -34.212074 -0.287564 0.967167 -20.033226 0.964537 1.212842 0.0 1e-06 -0.0 -3.440391 0.788234 0.501655 -15.928196 -3.167309 2.999707 -6.33883 -1e-06 -1e-06 -18.123459 3.648184 -4.905675 -2e-06 1e-06 -1e-06 10.367487 10.712918 12.859744 69.504791 2.143532 7.085895 -0.507652 31.46813 0.183682 1.075425 1.111726 -9.730856 2.243541 -5.255038 -3.180159 14.282896 -0.826596 6.952507 -1e-06 -12.690609 -0.0 16.252491 -17.580097 2.635265 1.665666 -1.955922 -2.878299 4.7278 -4.17059 4.993925 11.020528 3e-06 0.0 12.109053 -3.735717 -2.866783 1e-06 -0.0 -0.0 1.291986 -1.92855 -1.49809 14.800132 0.567468 3.86561 14.242573 -1.341737 -6.660658 19.631971 0.143925 -0.648244 49.825851 -0.560123 -6.119174 0.353029 -1.511151 -0.03194 20.222797 3.684309 2.316633 18.787273 3e-06 -0.0 10.751627 -0.47987 1.397907 -0.0 -0.0 0.0 3.273808 0.305946 -0.58011 21.48682 11.830378 2.266135 8.16293 2e-06 0.0 18.399084 -3.798987 -4.940575 5e-06 1e-06 -1e-06 2.289945 0.007136 4.157119 0.043003 0.068012 3.354404 -3.950604 5.610632 -4.292588 1.676813 -2.063159 0.565799 0.0 0.0 2e-06 -4.500183 -18.245867 2.660117 0.037507 -0.177144 9.016149 4.887869 2.299047 -7.156681 -1.403679 0.93387 -0.325118 0.0 0.0 -1e-06 
0.0 0.0 0.0 0.0 -0.0 0.0 -4.38694 100.033569 -3.327061 0.901642 -0.302184 -3.504208 0.002615 -0.133406 -5.771531 -0.368249 -0.203082 -7.22816 0.117942 -2.446994 17.204416 0.15944 2.93156 5.980547 -0.644293 0.61221 -3.641695 -1.690568 0.501698 -4.034348 7.7e-05 -2.2e-05 6e-06 0.021656 -0.022669 -0.013489 0.757572 -3.743037 -10.647609 -0.71695 3.707763 -10.668007 -11.150501 -4.945168 13.262073 -64.783562 -10.923193 28.212645 -0.513992 -27.884809 0.260815 -0.442049 4.162685 -5.012651 -5.882112 9.861293 0.702591 -10.936881 -0.360575 7.156212 1e-06 8.774833 -1e-06 -16.204466 17.928308 6.003214 -1.844034 2.498507 -2.507282 -10.163609 4.678948 4.621113 -20.976044 -4e-06 2e-06 -21.226309 2.451698 -3.594004 1e-06 -5e-06 -0.0 -1.362683 2.2408 -0.746322 -21.334936 0.584909 3.008325 -13.821229 -4e-06 1e-06 -23.887196 -0.249081 -0.839484 -60.634438 2.541945 -1.131599 -0.294025 1.679689 0.833256 -14.218224 0.093215 1.300581 -34.212082 -0.287566 0.967171 -20.033232 0.964536 1.212847 -0.0 1e-06 -0.0 -3.440392 0.788235 0.501656 -15.928203 -3.167313 2.999709 -6.338832 -2e-06 0.0 -18.123466 3.648185 -4.905676 -2e-06 1e-06 -1e-06 10.404333 10.678042 12.967241 69.479622 2.177869 7.168583 -0.531895 31.376616 0.150644 1.191777 1.151016 -9.719399 2.243543 -5.255042 -3.180159 14.282898 -0.826593 6.952506 -3e-06 -12.690615 -1e-06 16.30271 -17.603748 2.614011 1.665667 -1.955924 -2.8783 4.727801 -4.170591 4.993926 11.020535 3e-06 -1e-06 12.109057 -3.735718 -2.866786 1e-06 -0.0 -0.0 1.291986 -1.928551 -1.498091 14.80014 0.567471 3.865609 14.242581 -1.341736 -6.660662 19.631979 0.143928 -0.648245 49.948677 -0.558907 -6.109392 0.353029 -1.511153 -0.03194 20.222803 3.684315 2.316632 18.787287 6e-06 -2e-06 10.751636 -0.479867 1.397907 1e-06 -0.0 0.0 3.273809 0.305947 -0.580112 21.48683 11.830386 2.266134 8.162933 2e-06 -1e-06 18.399096 -3.798985 -4.940579 5e-06 1e-06 -2e-06 2.264246 -0.00301 4.464238 0.028797 0.041167 2.863263 -3.955028 5.641794 -4.063452 1.67973 -2.076735 0.595984 0.0 -0.0 2e-06 -4.514553 -18.1828 3.026212 0.031245 -0.159236 8.381438 4.922357 2.191191 -6.932308 -1.408599 0.912197 -0.366808 -0.0 0.0 -1e-06 
0.0 0.0 0.0 0.0 -0.0 0.0 -4.33347 100.041901 -3.237095 0.905892 -0.297073 -3.495727 -0.007839 -0.151991 -5.807127 -0.357032 -0.196685 -7.253098 0.146854 -2.459761 17.216011 0.142414 2.960318 6.103997 -0.621292 0.604729 -3.660659 -1.722643 0.511178 -3.821089 7.7e-05 -2.2e-05 6e-06 0.02066 -0.006967 -0.017157 0.752265 -3.727495 -10.660599 -0.713534 3.723015 -10.678554 -11.132345 -4.957283 13.251327 -64.804146 -10.853455 28.137255 -0.595048 -27.978607 0.255438 -0.521803 4.215142 -4.835984 -5.882112 9.861293 0.702591 -10.936882 -0.360575 7.156214 1e-06 8.774832 -2e-06 -16.237688 17.950775 5.994969 -1.844036 2.498507 -2.507279 -10.163611 4.678948 4.621113 -20.976046 -5e-06 2e-06 -21.226309 2.451698 -3.594003 1e-06 -6e-06 1e-06 -1.362683 2.2408 -0.746326 -21.334938 0.58491 3.008326 -13.821229 -4e-06 1e-06 -23.887201 -0.249082 -0.839483 -60.59938 2.558648 -1.127745 -0.294025 1.679689 0.833257 -14.218224 0.093214 1.300583 -34.212086 -0.287566 0.967171 -20.033232 0.964536 1.212845 -0.0 1e-06 1e-06 -3.440392 0.788234 0.501657 -15.928203 -3.167312 2.99971 -6.338832 -1e-06 0.0 -18.123466 3.648183 -4.905674 -2e-06 1e-06 -1e-06 10.461284 10.662182 13.059721 69.42009 2.171971 7.09047 -0.51478 31.347315 0.151108 1.200998 1.205134 -9.769035 2.243542 -5.255039 -3.180159 14.282896 -0.826595 6.952506 -1e-06 -12.690609 -0.0 16.329374 -17.596771 2.613647 1.665667 -1.955922 -2.8783 4.7278 -4.170589 4.993924 11.020529 2e-06 -1e-06 12.109056 -3.735717 -2.866786 1e-06 -0.0 -1e-06 1.291986 -1.928549 -1.49809 14.800136 0.567468 3.865607 14.242578 -1.341736 -6.660661 19.631975 0.143927 -0.648245 49.998302 -0.553345 -6.112582 0.353029 -1.51115 -0.03194 20.222799 3.684312 2.316629 18.787283 4e-06 -2e-06 10.751631 -0.479869 1.397906 1e-06 -0.0 1e-06 3.273808 0.305947 -0.580111 21.486822 11.830378 2.266133 8.16293 2e-06 -1e-06 18.399088 -3.798986 -4.940578 5e-06 1e-06 -2e-06 2.233306 -0.019658 4.589692 0.022078 0.032492 2.700503 -3.954526 5.667964 -4.009475 1.68181 -2.076609 0.62689 0.0 -0.0 2e-06 -4.563225 -18.123238 3.209844 0.034766 -0.159728 8.111917 4.970226 2.099905 -6.864095 -1.410591 0.909603 -0.365696 -0.0 0.0 -1e-06 
0.0 0.0 0.0 0.0 -0.0 0.0 -4.311947 100.046013 -3.165419 0.914357 -0.309854 -3.493624 -0.01774 -0.158683 -5.83602 -0.34923 -0.211929 -7.283564 0.173541 -2.458885 17.242212 0.116739 2.985963 6.22777 -0.601922 0.606611 -3.683859 -1.729726 0.535312 -3.629945 7.7e-05 -2.3e-05 6e-06 0.019927 -0.0031 -0.020676 0.74994 -3.72382 -10.678436 -0.712588 3.726606 -10.693896 -11.153079 -4.94532 13.26832 -64.790489 -10.825132 28.157244 -0.62142 -28.075735 0.251979 -0.57392 4.264772 -4.707861 -5.882111 9.861292 0.70259 -10.936877 -0.360574 7.156204 -1e-06 8.774829 -4e-06 -16.257824 17.944162 5.993139 -1.844034 2.498507 -2.507277 -10.163605 4.678948 4.621109 -20.976032 -1e-06 0.0 -21.226297 2.4517 -3.594003 1e-06 -6e-06 -0.0 -1.362683 2.2408 -0.746323 -21.334925 0.584912 3.008321 -13.821221 -2e-06 -0.0 -23.887184 -0.249076 -0.839484 -60.58947 2.574289 -1.127174 -0.294024 1.679688 0.833255 -14.218215 0.093216 1.300579 -34.212067 -0.287562 0.967168 -20.033226 0.964536 1.212841 0.0 -0.0 -0.0 -3.44039 0.788234 0.501656 -15.928198 -3.16731 2.999707 -6.338829 0.0 -1e-06 -18.123457 3.648187 -4.905673 -2e-06 1e-06 -1e-06 10.510013 10.655463 13.129821 69.352737 2.153544 6.989288 -0.498638 31.365997 0.164778 1.177375 1.234391 -9.853859 2.243543 -5.25504 -3.180158 14.282896 -0.826597 6.952506 0.0 -12.690611 1e-06 16.343168 -17.573658 2.613467 1.665667 -1.955923 -2.878299 4.727801 -4.170591 4.993926 11.020531 1e-06 -0.0 12.109057 -3.735719 -2.866784 1e-06 -0.0 0.0 1.291986 -1.92855 -1.49809 14.800136 0.567466 3.86561 14.242577 -1.34174 -6.66066 19.631973 0.143923 -0.648245 49.96825 -0.560344 -6.106735 0.353029 -1.511151 -0.031939 20.222801 3.684309 2.316633 18.787283 1e-06 -2e-06 10.751636 -0.47987 1.397907 -1e-06 -0.0 -0.0 3.273808 0.305946 -0.580111 21.486822 11.83038 2.266136 8.16293 0.0 -0.0 18.399092 -3.79899 -4.940578 5e-06 1e-06 -1e-06 2.211658 -0.002521 4.700852 0.020228 0.033803 2.564577 -3.933097 5.677665 -3.964243 1.681863 -2.070174 0.644223 0.0 -0.0 2e-06 -4.601995 -18.090292 3.337327 0.040399 -0.173107 7.945498 5.021875 2.058665 -6.830612 -1.410876 0.90139 -0.376856 -0.0 0.0 -1e-06 
0.0 0.0 0.0 0.0 -0.0 0.0 -4.323789 100.04834 -3.107177 0.916793 -0.324978 -3.478358 -0.022093 -0.153163 -5.868568 -0.343232 -0.229534 -7.309547 0.191404 -2.455534 17.275015 0.101925 2.994864 6.301416 -0.570364 0.630117 -3.69392 -1.727545 0.551689 -3.498097 7.7e-05 -2.3e-05 6e-06 0.019352 -0.000736 -0.018672 0.751083 -3.720527 -10.684431 -0.714833 3.727738 -10.699562 -11.179471 -4.931532 13.283295 -64.762207 -10.816261 28.169031 -0.63901 -28.193485 0.261468 -0.580533 4.288939 -4.629897 -5.882104 9.861284 0.70259 -10.936868 -0.360576 7.156203 1e-06 8.774826 -2e-06 -16.233971 17.90777 6.006985 -1.844031 2.498504 -2.507277 -10.163597 4.678943 4.621108 -20.976017 -6e-06 3e-06 -21.226282 2.451695 -3.593998 2e-06 -5e-06 -0.0 -1.362681 2.240798 -0.746324 -21.334911 0.584906 3.008321 -13.82121 -5e-06 2e-06 -23.887161 -0.24908 -0.839479 -60.569763 2.57639 -1.122105 -0.294024 1.679687 0.833257 -14.218206 0.093213 1.300581 -34.212036 -0.287567 0.967172 -20.033209 0.964536 1.212845 0.0 1e-06 -0.0 -3.440387 0.788232 0.501654 -15.928183 -3.16731 2.999707 -6.338824 -2e-06 2e-06 -18.123444 3.648181 -4.905669 -2e-06 1e-06 -1e-06 10.537092 10.634706 13.154384 69.282303 2.116897 6.942777 -0.488799 31.416706 0.17641 1.143612 1.263783 -9.946883 2.243542 -5.255036 -3.180158 14.282894 -0.826594 6.952501 -3e-06 -12.690601 2e-06 16.346773 -17.565336 2.617565 1.665666 -1.95592 -2.878299 4.727799 -4.170586 4.993923 11.020526 4e-06 -2e-06 12.109053 -3.735714 -2.866784 1e-06 -0.0 -0.0 1.291986 -1.92855 -1.49809 14.800129 0.56747 3.865606 14.242575 -1.341734 -6.660659 19.631973 0.143928 -0.648246 49.92445 -0.576523 -6.100378 0.353029 -1.51115 -0.03194 20.222795 3.684309 2.316628 18.787279 5e-06 -3e-06 10.751627 -0.479869 1.397905 -0.0 -0.0 1e-06 3.273808 0.305947 -0.580111 21.486816 11.830374 2.266131 8.16293 1e-06 -2e-06 18.399084 -3.798984 -4.940577 5e-06 1e-06 -1e-06 2.207168 0.016241 4.775215 0.023132 0.041741 2.460016 -3.912022 5.670943 -3.934244 1.678599 -2.062317 0.662894 0.0 -0.0 2e-06 -4.612648 -18.107258 3.417299 0.044278 -0.179075 7.830066 5.080709 2.049615 -6.812682 -1.411095 0.895771 -0.364732 -0.0 0.0 -1e-06 
